<svg xmlns="http://www.w3.org/2000/svg" viewBox="0 0 1536 1536" width="1536" height="1536">
	<style>
		tspan { white-space:pre }
		.shp0 { fill: #ffffff } 
		.shp1 { fill: #bdc3c7 } 
		.shp2 { fill: #414f6b } 
		.shp3 { fill: #ecf0f1 } 
	</style>
	<g id="Layer 1">
		<g id="&lt;Group&gt;">
			<path id="&lt;Path&gt;" class="shp0" d="M1536 768C1536 827.74 1529.18 885.88 1516.27 941.69C1233.4 1093.62 1165.84 1084.62 801.42 1084.62C565.86 1084.62 321.65 1429.95 180.77 1262.99C67.98 1129.31 0 956.59 0 768C0 343.84 343.84 0 768 0C1192.16 0 1536 343.84 1536 768Z" />
			<path id="&lt;Path&gt;" class="shp1" d="M768 1536C1132.42 1536 1437.55 1282.19 1516.27 941.69L1372.05 735L1236 822L984 468L558 1014L408 954L180.82 1262.96C321.7 1429.92 532.45 1536 768 1536Z" />
			<path id="&lt;Path&gt;" class="shp2" d="M984 468L1002.31 954L1236 822L984 468Z" />
			<path id="&lt;Path&gt;" class="shp3" d="M268.85 1264.71L408 1300.71L543.34 1467.2L790.82 1251.21L691.82 1021.72L984 468L558 1014L408 954L258 1158L268.85 1264.71Z" />
			<path id="&lt;Path&gt;" class="shp2" d="M408 954L408 1071L471.34 1044.22L439.67 1179.21L604.81 954L408 954Z" />
			<path id="&lt;Path&gt;" class="shp2" d="M930.31 1242.21L1047.31 1066.6L1254.3 1002L1353.3 1205.37L1236 1122.1L1002.31 1368.2L930.31 1242.21Z" />
			<path id="&lt;Path&gt;" class="shp2" d="M880.82 787.73L768 1017.22L848.55 1147.71L880.82 787.73Z" />
			<path id="&lt;Path&gt;" class="shp3" d="M1294.8 864.23L1353.3 1039.72L1425.29 967.72L1294.8 864.23Z" />
			<path id="&lt;Path&gt;" class="shp1" d="M543.34 1255.71L621 1147.71L582.17 1282.71L543.34 1255.71Z" />
		</g>
	</g>
</svg>